<?xml version="1.0" encoding="utf-8"?>
<!-- Generator: Adobe Illustrator 25.2.1, SVG Export Plug-In . SVG Version: 6.00 Build 0)  -->
<svg version="1.1" id="Capa_1" xmlns="http://www.w3.org/2000/svg" xmlns:xlink="http://www.w3.org/1999/xlink" x="0px" y="0px"
	 viewBox="0 0 34.4 16.182" style="enable-background:new 0 0 34.4 16.182;" xml:space="preserve">
<style type="text/css">
	.st0{fill:#FFDB76;}
</style>
<g>
	<path class="st0" d="M14.8954,9.323c0,0.154-0.124,0.278-0.28,0.278c-0.154,0-0.28-0.124-0.28-0.278
		c0-0.156,0.126-0.278,0.28-0.278C14.7714,9.045,14.8954,9.167,14.8954,9.323"/>
	<path class="st0" d="M1.1753,9.323c0,0.154-0.127,0.278-0.281,0.278c-0.153,0-0.278-0.124-0.278-0.278
		c0-0.156,0.125-0.278,0.278-0.278C1.0483,9.045,1.1753,9.167,1.1753,9.323"/>
	<path class="st0" d="M2.1118,11.9312l-0.042-0.062l-0.249,0.173l0.048,0.072c0.076,0.102,0.146,0.102,0.229,0.046
		C2.1638,12.1132,2.1828,12.0342,2.1118,11.9312 M1.6568,12.2802l-0.059-0.085l-0.313,0.217l0.059,0.082
		c0.073,0.104,0.173,0.134,0.278,0.061C1.7078,12.4942,1.7308,12.3862,1.6568,12.2802 M2.0868,11.4082l0.267,0.387
		c0.176,0.257,0.216,0.51-0.005,0.66c-0.135,0.094-0.303,0.058-0.42-0.054l-0.004,0.002c0.101,0.207,0.038,0.399-0.104,0.497
		c-0.226,0.155-0.496,0.063-0.676-0.194l-0.299-0.437L2.0868,11.4082z"/>
	<polygon class="st0" points="3.6366,13.2055 3.9616,13.4375 3.2806,14.3925 3.7476,14.7245 3.5486,15.0005 2.7606,14.4365 	"/>
	<path class="st0" d="M5.8037,15.3452l0.312,0.08l-0.021-0.34c-0.005-0.089-0.005-0.125-0.004-0.19l-0.011-0.001
		c-0.035,0.061-0.056,0.102-0.098,0.166L5.8037,15.3452z M6.0297,14.4292l0.366,0.093l0.148,1.597l-0.387-0.099l-0.023-0.318
		l-0.476-0.119l-0.168,0.27l-0.383-0.097L6.0297,14.4292z"/>
	<path class="st0" d="M8.516,15.216c0.009,0.065,0.036,0.208,0.044,0.269l0.093,0.652l-0.329,0.045L8.11,14.685l0.334-0.045
		L8.9,15.183c0.142,0.166,0.183,0.242,0.234,0.31h0.005c-0.011-0.068-0.032-0.182-0.041-0.243L9,14.559l0.329-0.045l0.213,1.496
		l-0.328,0.048l-0.392-0.464c-0.192-0.225-0.246-0.313-0.299-0.378H8.516z"/>
	<path class="st0" d="M12.1317,13.7769l-0.362,0.22c-0.082-0.098-0.251-0.145-0.402-0.05c-0.214,0.13-0.214,0.379-0.081,0.599
		c0.129,0.211,0.374,0.323,0.574,0.202c0.174-0.106,0.175-0.282,0.13-0.408l0.376-0.226c0.111,0.313,0.036,0.697-0.341,0.925
		c-0.4,0.245-0.847,0.104-1.084-0.285c-0.242-0.39-0.141-0.855,0.253-1.092C11.5587,13.4389,11.9497,13.5529,12.1317,13.7769"/>
	<path class="st0" d="M14.2065,12.4918c0.127-0.187,0.064-0.439-0.145-0.584c-0.205-0.138-0.453-0.125-0.594,0.073
		c-0.127,0.187-0.066,0.442,0.142,0.586C13.8195,12.7108,14.0755,12.6778,14.2065,12.4918 M13.1765,11.7788
		c0.282-0.414,0.769-0.438,1.114-0.202c0.362,0.249,0.469,0.738,0.209,1.117c-0.317,0.457-0.809,0.416-1.117,0.206
		C13.0275,12.6548,12.9095,12.1648,13.1765,11.7788"/>
	<polygon class="st0" points="0.557,5.5879 0.424,6.1239 0.653,6.1809 0.778,5.6639 1.088,5.7399 0.961,6.2589 1.235,6.3259 
		1.369,5.7679 1.701,5.8479 1.469,6.7909 0,6.4309 0.227,5.5099 	"/>
	<polygon class="st0" points="1.047,3.7046 1.272,3.3786 2.237,4.0446 2.563,3.5716 2.842,3.7666 2.291,4.5636 	"/>
	<polygon class="st0" points="3.8916,1.3495 3.4346,1.6635 3.5686,1.8575 4.0076,1.5555 4.1886,1.8165 3.7486,2.1185 3.9076,2.3495 
		4.3816,2.0245 4.5736,2.3045 3.7736,2.8545 2.9176,1.6105 3.6996,1.0715 	"/>
	<polygon class="st0" points="6.5184,0.3745 5.9814,0.5035 6.0444,0.7755 6.5604,0.6535 6.6354,0.9605 6.1214,1.0845 6.2544,1.6445 
		5.8674,1.7365 5.5144,0.2675 6.4404,0.0455 	"/>
	<path class="st0" d="M8.587,0.933L8.905,0.98L8.847,0.646C8.832,0.555,8.831,0.522,8.823,0.455l-0.01-0.003
		c-0.028,0.065-0.046,0.111-0.078,0.18L8.587,0.933z M8.715,0l0.368,0.052l0.32,1.57L9.006,1.567L8.953,1.253L8.469,1.185
		L8.326,1.472L7.939,1.416L8.715,0z"/>
	<path class="st0" d="M11.3369,1.4397c-0.032,0.056-0.103,0.182-0.132,0.236l-0.343,0.563l-0.284-0.173l0.783-1.292l0.287,0.174
		l0.01,0.71c0.005,0.222-0.012,0.304-0.018,0.387l0.008,0.004c0.033-0.057,0.088-0.162,0.121-0.214l0.363-0.597l0.283,0.172
		l-0.786,1.297l-0.283-0.175l-0.009-0.604c-0.005-0.295,0.007-0.399,0.006-0.484L11.3369,1.4397z"/>
	<polygon class="st0" points="13.7226,3.1544 13.5206,2.8814 13.7936,2.6794 14.4376,3.5434 14.1666,3.7474 13.9636,3.4754 
		13.0226,4.1784 12.7836,3.8574 	"/>
	<polygon class="st0" points="15.1903,6.204 15.0333,5.674 14.8083,5.738 14.9543,6.251 14.6533,6.339 14.5033,5.828 14.2333,5.906 
		14.3943,6.457 14.0673,6.554 13.7973,5.62 15.2473,5.198 15.5133,6.108 	"/>
	<path class="st0" d="M8.2618,8.1538c-0.241-0.039-0.483-0.157-0.721-0.354c-0.438-0.445-0.587-0.908-0.428-1.335
		c0.146-0.401,0.508-0.642,0.699-0.661c0.21-0.018,0.368,0.061,0.45,0.117V8.1538z M8.1258,9.7598
		c-0.06,0.058-0.138,0.085-0.245,0.085c-0.314,0-0.374-0.227-0.385-0.363v-0.387h-0.482v0.378c-0.006,0.093-0.036,0.195-0.121,0.283
		c-0.057,0.062-0.144,0.089-0.257,0.089c-0.117,0-0.201-0.027-0.262-0.09c-0.095-0.098-0.119-0.193-0.123-0.282v-0.377h-0.477v0.377
		c0,0.038-0.033,0.371-0.391,0.371c-0.152,0-0.249-0.066-0.316-0.212c-0.065-0.137-0.07-0.283-0.07-0.29
		c-0.06-1.132,0.155-1.923,0.639-2.348c0.322-0.281,0.706-0.334,0.946-0.339c-0.04,0.385,0.061,0.917,0.627,1.492l0.017,0.016
		c0.362,0.299,0.717,0.433,1.036,0.472v0.722C8.2618,9.3568,8.2608,9.6188,8.1258,9.7598 M7.7558,12.5488
		c-2.457,0-4.456-2.001-4.456-4.458c0-2.456,1.999-4.455,4.456-4.455c2.459,0,4.457,1.999,4.457,4.455
		c0,0.174-0.01,0.342-0.029,0.507c-0.108,0.21-0.533,0.93-1.295,0.989c-0.216,0.017-0.395-0.056-0.515-0.208
		c-0.159-0.209-0.177-0.532-0.051-0.885c0.01-0.035,0.032-0.087,0.055-0.152c0.108-0.283,0.286-0.764,0.372-1.131
		c0.105-0.466,0.076-1.125-0.313-1.576c-0.202-0.224-0.575-0.484-1.228-0.429c-0.296,0.026-0.561,0.181-0.72,0.294
		c-0.154-0.094-0.403-0.199-0.718-0.171c-0.353,0.03-0.826,0.353-1.057,0.852c-0.295-0.018-0.886,0.014-1.386,0.449
		c-0.605,0.524-0.878,1.447-0.809,2.732c0.001,0.022,0.007,0.237,0.105,0.453c0.143,0.325,0.415,0.506,0.759,0.506
		c0.249,0,0.462-0.094,0.614-0.272c0.009,0.01,0.02,0.024,0.033,0.035c0.15,0.158,0.361,0.241,0.606,0.241s0.454-0.083,0.605-0.241
		c0.006-0.009,0.014-0.016,0.02-0.025c0.013,0.013,0.021,0.025,0.035,0.036c0.147,0.149,0.35,0.23,0.585,0.23
		c0.233,0,0.435-0.081,0.583-0.23c0.209-0.212,0.276-0.496,0.276-0.652v-0.076v-0.01v-0.737c0.265-0.046,0.476-0.149,0.607-0.247
		l-0.289-0.381c0,0-0.12,0.085-0.318,0.137v-2.221c0.11-0.08,0.311-0.209,0.51-0.226c0.367-0.031,0.641,0.058,0.823,0.268
		c0.277,0.317,0.285,0.818,0.209,1.155c-0.077,0.339-0.255,0.814-0.352,1.068c-0.023,0.068-0.046,0.125-0.057,0.159
		c-0.183,0.511-0.137,0.997,0.122,1.338c0.199,0.257,0.499,0.398,0.835,0.398c0.032,0,0.063-0.001,0.095-0.002
		c0.413-0.033,0.742-0.201,1.003-0.404C11.2908,11.3458,9.6618,12.5488,7.7558,12.5488 M12.6478,8.7328
		c0.027-0.21,0.044-0.424,0.044-0.642c0-2.721-2.213-4.934-4.936-4.934c-2.717,0-4.933,2.213-4.933,4.934s2.216,4.934,4.933,4.934
		c2.503,0,4.574-1.869,4.892-4.286V8.7328z"/>
	<path class="st0" d="M33.292,9.8955c0.416,0,0.724-0.251,0.762-0.593c0.027-0.256-0.048-0.487-0.216-0.684
		c-0.078-0.093-0.168-0.178-0.221-0.291c-0.029-0.059-0.03-0.118,0.03-0.161c0.066-0.041,0.102,0.012,0.134,0.057
		c0.063,0.086,0.12,0.177,0.183,0.264c0.069,0.091,0.157,0.142,0.275,0.105c0.119-0.037,0.158-0.132,0.161-0.248
		c0-0.06-0.007-0.119-0.027-0.178c-0.077-0.229-0.205-0.426-0.396-0.576c-0.175-0.139-0.378-0.223-0.602-0.186
		c-0.571,0.096-0.792,0.698-0.433,1.158c0.089,0.112,0.18,0.223,0.236,0.355c0.031,0.069,0.058,0.146-0.011,0.207
		c-0.072,0.066-0.134,0.006-0.191-0.027c-0.09-0.054-0.172-0.127-0.267-0.177c-0.112-0.062-0.183-0.029-0.226,0.094
		c-0.054,0.151-0.023,0.293,0.062,0.419C32.737,9.7235,33.015,9.8655,33.292,9.8955 M32.675,7.2735c0-0.052-0.008-0.088,0.001-0.123
		c0.023-0.108-0.025-0.156-0.125-0.184c-0.161-0.044-0.323-0.095-0.478-0.156c-0.1-0.037-0.124-0.017-0.134,0.089
		c-0.041,0.396-0.095,0.794-0.208,1.18c-0.025,0.082-0.054,0.165-0.106,0.236c-0.021,0.034-0.05,0.066-0.093,0.056
		c-0.042-0.008-0.053-0.044-0.064-0.078c-0.025-0.074-0.025-0.149-0.026-0.223c-0.003-0.441,0.065-0.87,0.136-1.298
		c0.012-0.071,0.003-0.104-0.069-0.12c-0.226-0.046-0.45-0.096-0.677-0.154c-0.071-0.019-0.085,0.008-0.096,0.072
		c-0.074,0.39-0.123,0.782-0.129,1.181c-0.01,0.4,0.008,0.802,0.182,1.174c0.246,0.536,0.883,0.648,1.302,0.235
		c0.132-0.13,0.226-0.286,0.297-0.456C32.587,8.2445,32.646,7.7535,32.675,7.2735 M32.129,5.2125
		c0.198,0.234,0.428,0.362,0.693,0.426c0.27,0.067,0.524,0.06,0.734-0.151c0.247-0.249,0.264-0.662,0.038-0.982
		c-0.195-0.279-0.479-0.426-0.793-0.521c-0.179-0.055-0.362-0.057-0.545-0.005c-0.755,0.21-1.145,1.213-0.743,1.921
		c0.317,0.561,0.931,0.805,1.568,0.755c0.062-0.005,0.066-0.045,0.076-0.084c0.04-0.17,0.076-0.34,0.12-0.51
		c0.021-0.077,0-0.09-0.076-0.09c-0.275,0-0.538-0.059-0.775-0.202C32.231,5.6495,32.123,5.4775,32.129,5.2125 M28.954,5.9065
		c0.347-0.02,0.676-0.017,1.003,0.008c0.085,0.008,0.134-0.021,0.186-0.087c0.496-0.614,0.914-1.278,1.237-1.998
		c0.035-0.08,0.063-0.086,0.132-0.041c0.105,0.07,0.22,0.125,0.328,0.191c0.057,0.036,0.088,0.032,0.127-0.031
		c0.112-0.175,0.2-0.367,0.289-0.557c0.046-0.101,0.03-0.157-0.055-0.224c-0.344-0.28-0.714-0.518-1.111-0.712
		c-0.397-0.194-0.809-0.347-1.255-0.445c0.052,0.292,0.042,0.574,0,0.851c-0.016,0.108,0.004,0.162,0.095,0.217
		c0.112,0.063,0.274,0.096,0.304,0.22c0.032,0.121-0.052,0.257-0.103,0.381c-0.254,0.65-0.604,1.251-0.954,1.853
		C29.107,5.6515,29.034,5.7705,28.954,5.9065 M32.482,12.0025c0.142,0.067,0.263,0.123,0.382,0.181
		c0.037,0.017,0.066,0.031,0.107-0.002c0.254-0.208,0.465-0.449,0.611-0.745c0.033-0.066,0.004-0.087-0.048-0.107
		c-0.162-0.061-0.321-0.129-0.484-0.184c-0.084-0.03-0.104-0.056-0.069-0.147c0.167-0.419,0.003-0.85-0.392-1.061
		c-0.208-0.108-0.434-0.158-0.667-0.186c-0.425-0.049-0.852-0.026-1.279,0.023c-0.137,0.017-0.137,0.012-0.084,0.142
		c0.399,0.969,0.795,1.935,1.159,2.918c0.049,0.133,0.097,0.27,0.149,0.416c0.253-0.227,0.491-0.445,0.691-0.704
		c0.044-0.058,0.056-0.111,0.03-0.183C32.549,12.2515,32.52,12.1385,32.482,12.0025 M30.433,8.3065
		c0.007-0.204-0.023-0.411-0.05-0.619c-0.014-0.081-0.043-0.122-0.133-0.123c-0.392-0.005-0.773,0.053-1.153,0.139
		c-0.05,0.013-0.062,0.036-0.051,0.086c0.043,0.192,0.083,0.386,0.122,0.581c0.012,0.066,0.039,0.08,0.103,0.061
		c0.094-0.029,0.19-0.044,0.285-0.066c0.047-0.012,0.063-0.004,0.068,0.046c0.015,0.133-0.057,0.262-0.183,0.314
		c-0.267,0.115-0.525,0.017-0.645-0.253c-0.065-0.148-0.101-0.307-0.117-0.467c-0.036-0.359,0.106-0.59,0.438-0.71
		c0.194-0.07,0.393-0.076,0.592-0.04c0.074,0.014,0.096-0.001,0.105-0.07c0.031-0.234,0.063-0.465,0.095-0.694
		c0.009-0.062-0.001-0.092-0.071-0.103c-0.294-0.048-0.587-0.054-0.879,0.005c-0.507,0.105-0.915,0.357-1.108,0.856
		c-0.268,0.686-0.191,1.343,0.263,1.928c0.313,0.403,0.714,0.638,1.249,0.551c0.505-0.081,0.942-0.465,1.035-0.928
		C30.43,8.6405,30.439,8.4785,30.433,8.3065 M27.662,10.8895c-0.043,0.023-0.074,0.038-0.102,0.058
		c-1.076,0.637-1.988,1.478-2.851,2.378c-0.043,0.043-0.035,0.065,0.007,0.101c0.26,0.22,0.542,0.406,0.843,0.56
		c0.051,0.028,0.083,0.02,0.123-0.019c0.122-0.123,0.253-0.235,0.375-0.36c0.055-0.054,0.086-0.059,0.15-0.009
		c0.324,0.249,0.654,0.494,0.98,0.743c0.432,0.329,0.901,0.27,1.39,0.148c-0.02-0.031-0.033-0.051-0.046-0.069
		c-0.406-0.557-0.774-1.136-1.085-1.751c-0.031-0.064-0.03-0.101,0.025-0.15c0.154-0.14,0.304-0.288,0.473-0.411
		c0.063-0.049,0.075-0.088,0.042-0.165C27.841,11.6095,27.73,11.2645,27.662,10.8895 M27.067,10.8075
		c0.376-0.204,0.736-0.404,1.099-0.598c0.075-0.039,0.04-0.08,0.023-0.125c-0.426-1.076-0.85-2.15-1.276-3.227
		c-0.024-0.064-0.045-0.084-0.114-0.06c-0.435,0.162-0.869,0.319-1.306,0.476c-0.055,0.02-0.082,0.048-0.093,0.116
		c-0.04,0.31-0.047,0.624-0.055,0.938c-0.028,1.138,0.011,2.279,0.047,3.416c0.003,0.082,0.011,0.162,0.019,0.256
		c0.371-0.297,0.732-0.582,1.116-0.838c0.041-0.027,0.039-0.064,0.038-0.103c-0.016-0.24-0.022-0.484-0.041-0.725
		c-0.022-0.288-0.025-0.285,0.226-0.424c0.059-0.033,0.08-0.038,0.097,0.039C26.917,10.2315,26.993,10.5155,27.067,10.8075
		 M29.839,13.7715c0-0.042,0.004-0.086-0.002-0.131c-0.013-0.084,0.01-0.12,0.102-0.138c0.175-0.027,0.344-0.085,0.495-0.18
		c0.072-0.045,0.09-0.017,0.117,0.045c0.075,0.171,0.157,0.344,0.235,0.517c0.019,0.043,0.03,0.073,0.091,0.045
		c0.228-0.098,0.448-0.21,0.639-0.375c0.062-0.054,0.078-0.101,0.047-0.184c-0.184-0.511-0.373-1.022-0.584-1.526
		c-0.269-0.643-0.562-1.273-0.925-1.867c-0.041-0.064-0.076-0.09-0.161-0.067c-0.522,0.131-1.018,0.333-1.5,0.575
		c-0.064,0.03-0.07,0.069-0.066,0.131c0.031,0.411,0.075,0.82,0.12,1.231c0.096,0.842,0.214,1.682,0.377,2.517
		c0.013,0.069,0.034,0.089,0.103,0.087c0.253-0.009,0.5-0.057,0.747-0.098c0.076-0.012,0.107-0.049,0.12-0.118
		C29.826,14.0825,29.84,13.9285,29.839,13.7715 M23.801,10.4225c-0.032-0.035-0.044-0.049-0.056-0.066
		c-0.399-0.476-0.692-1.017-0.956-1.575c-0.035-0.074-0.055-0.082-0.122-0.039c-0.331,0.21-0.637,0.451-0.937,0.699
		c-0.059,0.048-0.048,0.087-0.025,0.142c0.356,0.878,0.814,1.696,1.424,2.419c0.317,0.377,0.665,0.718,1.068,1.002
		c0.061,0.041,0.094,0.037,0.147-0.014c0.204-0.202,0.417-0.399,0.626-0.595c0.037-0.036,0.059-0.067,0.053-0.123
		c-0.047-0.485-0.063-0.973-0.074-1.459c-0.021-0.755,0.004-1.509,0.05-2.262c0.023-0.368,0.058-0.735,0.099-1.111
		c-0.432,0.184-0.843,0.386-1.248,0.601c-0.043,0.023-0.049,0.057-0.052,0.097c-0.039,0.337-0.041,0.675-0.035,1.012
		C23.772,9.5635,23.788,9.9785,23.801,10.4225 M29.585,2.6185c0-0.028,0-0.055,0-0.081c-0.015-0.551-0.323-0.876-0.866-0.919
		c-0.456-0.035-0.863,0.099-1.213,0.389c-0.93,0.771-1.508,1.758-1.687,2.965c-0.044,0.299-0.021,0.604,0.19,0.845
		c0.282,0.314,0.642,0.447,1.062,0.394c0.433-0.055,0.787-0.28,1.097-0.576c0.499-0.469,0.829-1.047,1.085-1.676
		C29.429,3.5275,29.575,3.0895,29.585,2.6185 M23.127,6.3085c0.129,0.464,0.296,0.872,0.486,1.273
		c0.027,0.062,0.047,0.077,0.116,0.042c0.307-0.157,0.616-0.312,0.926-0.461c0.07-0.032,0.097-0.078,0.117-0.146
		c0.223-0.887,0.496-1.756,0.835-2.606c0.389-0.969,0.835-1.914,1.436-2.769c0.004-0.01,0.004-0.023,0.006-0.036
		c-0.552-0.052-1.058,0.099-1.555,0.313c-0.032,0.013-0.054,0.04-0.075,0.069c-0.386,0.6-0.741,1.213-0.988,1.886
		c-0.015,0.04-0.013,0.091-0.049,0.116v-1.521c-0.419,0.139-0.805,0.334-1.147,0.618c-0.062,0.049-0.108,0.107-0.144,0.184
		c-0.761,1.583-1.317,3.231-1.494,4.994c-0.025,0.257-0.046,0.517-0.026,0.792c0.411-0.321,0.821-0.611,1.237-0.895
		c0.037-0.026,0.03-0.059,0.034-0.091C22.91,7.4885,23.018,6.9175,23.127,6.3085"/>
</g>
</svg>
